<svg xmlns="http://www.w3.org/2000/svg" viewBox="0 0 24 24" width="100%" height="100%">
  <path fill="#0065A9" d="M23.15 2.587L18.21.21a1.49 1.49 0 0 0-1.705.29l-9.46 8.63-4.27-3.23a.75.75 0 0 0-1.025.13l-1.46 1.83a.75.75 0 0 0 .11 1.05l3.89 3.09-3.89 3.09a.75.75 0 0 0-.11 1.05l1.46 1.83a.75.75 0 0 0 1.025.13l4.27-3.23 9.46 8.63a1.49 1.49 0 0 0 1.705.29l4.94-2.377A1.5 1.5 0 0 0 24 20.02V3.98a1.5 1.5 0 0 0-.85-1.393z"/>
  <path fill="#007ACC" d="M18.5 19.5L7.04 9.13l2.42-2.2 9.04 6.87v5.7z"/>
  <path fill="#1F9CF0" d="M18.5 4.5l-9.04 6.87-2.42-2.2L18.5 4.5z"/>
  <path fill="#0065A9" d="M18.5 4.5v15l5.5-2.65V7.15L18.5 4.5z"/>
</svg>